<mxfile host="app.diagrams.net" agent="Mozilla/5.0 (Windows NT 10.0; Win64; x64) AppleWebKit/537.36 (KHTML, like Gecko) Chrome/131.0.0.0 Safari/537.36" version="25.0.3">
  <diagram name="Page-1" id="K0iF7nu4UiiUGSgrPdki">
    <mxGraphModel dx="1050" dy="557" grid="1" gridSize="10" guides="1" tooltips="1" connect="1" arrows="1" fold="1" page="1" pageScale="1" pageWidth="850" pageHeight="1100" background="#ffffff" math="0" shadow="0">
      <root>
        <mxCell id="0" />
        <mxCell id="1" parent="0" />
        <mxCell id="D-ydvWDNZzA-fx-ul2-s-9" value="" style="edgeStyle=orthogonalEdgeStyle;rounded=0;orthogonalLoop=1;jettySize=auto;html=1;entryX=0;entryY=0.5;entryDx=0;entryDy=0;entryPerimeter=0;" edge="1" parent="1" source="D-ydvWDNZzA-fx-ul2-s-3" target="D-ydvWDNZzA-fx-ul2-s-5">
          <mxGeometry relative="1" as="geometry">
            <mxPoint x="175" y="510" as="targetPoint" />
          </mxGeometry>
        </mxCell>
        <mxCell id="D-ydvWDNZzA-fx-ul2-s-3" value="" style="image;html=1;image=img/lib/clip_art/computers/Server_128x128.png" vertex="1" parent="1">
          <mxGeometry x="110" y="280" width="130" height="120" as="geometry" />
        </mxCell>
        <mxCell id="D-ydvWDNZzA-fx-ul2-s-12" value="" style="edgeStyle=orthogonalEdgeStyle;rounded=0;orthogonalLoop=1;jettySize=auto;html=1;entryX=1;entryY=0.51;entryDx=0;entryDy=0;entryPerimeter=0;" edge="1" parent="1" source="D-ydvWDNZzA-fx-ul2-s-4" target="D-ydvWDNZzA-fx-ul2-s-5">
          <mxGeometry relative="1" as="geometry">
            <mxPoint x="685" y="390" as="sourcePoint" />
            <mxPoint x="685" y="510" as="targetPoint" />
          </mxGeometry>
        </mxCell>
        <mxCell id="D-ydvWDNZzA-fx-ul2-s-4" value="" style="image;html=1;image=img/lib/clip_art/computers/Server_128x128.png" vertex="1" parent="1">
          <mxGeometry x="620" y="280" width="130" height="120" as="geometry" />
        </mxCell>
        <mxCell id="D-ydvWDNZzA-fx-ul2-s-5" value="" style="sketch=0;aspect=fixed;pointerEvents=1;shadow=0;dashed=0;html=1;strokeColor=none;labelPosition=center;verticalLabelPosition=bottom;verticalAlign=top;align=center;fillColor=#00188D;shape=mxgraph.azure.queue_generic" vertex="1" parent="1">
          <mxGeometry x="325" y="470" width="200" height="60" as="geometry" />
        </mxCell>
        <mxCell id="D-ydvWDNZzA-fx-ul2-s-13" value="Redis - Aiven" style="text;html=1;align=center;verticalAlign=middle;resizable=0;points=[];autosize=1;fillColor=default;strokeWidth=6;" vertex="1" parent="1">
          <mxGeometry x="380" y="540" width="90" height="30" as="geometry" />
        </mxCell>
        <mxCell id="D-ydvWDNZzA-fx-ul2-s-15" value="Producer" style="text;html=1;align=center;verticalAlign=middle;resizable=0;points=[];autosize=1;fillColor=default;strokeWidth=6;" vertex="1" parent="1">
          <mxGeometry x="140" y="250" width="70" height="30" as="geometry" />
        </mxCell>
        <mxCell id="D-ydvWDNZzA-fx-ul2-s-16" value="Consumer" style="text;html=1;align=center;verticalAlign=middle;resizable=0;points=[];autosize=1;fillColor=default;strokeWidth=6;" vertex="1" parent="1">
          <mxGeometry x="645" y="240" width="80" height="30" as="geometry" />
        </mxCell>
      </root>
    </mxGraphModel>
  </diagram>
</mxfile>
